<svg width="852" height="178" viewBox="0 0 852 178" fill="none" xmlns="http://www.w3.org/2000/svg">
<path d="M63 26C80.6689 26 96.6383 33.2736 108.078 44.9898C108.43 45.3504 108.779 45.7151 109.123 46.0842C119.423 57.149 125.789 71.9251 125.995 88.1857C125.999 88.4567 126 88.7281 126 89C126 123.794 97.7938 152 63 152H0V89C1.52089e-06 54.2061 28.2061 26 63 26Z" fill="white"/>
<path d="M213.632 142.41C208.932 142.41 204.984 141.658 201.788 140.154C198.592 138.65 196.007 136.864 194.033 134.796C192.153 132.728 190.649 130.848 189.521 129.156H188.675V141H175.28V33.84H188.675V78.114H189.521C190.649 76.328 192.153 74.401 194.033 72.333C196.007 70.265 198.592 68.526 201.788 67.116C204.984 65.612 208.932 64.86 213.632 64.86C219.272 64.86 224.207 65.988 228.437 68.244C232.667 70.406 236.192 73.367 239.012 77.127C241.832 80.793 243.947 84.929 245.357 89.535C246.767 94.141 247.472 98.841 247.472 103.635C247.472 108.429 246.767 113.129 245.357 117.735C243.947 122.341 241.832 126.524 239.012 130.284C236.192 133.95 232.667 136.911 228.437 139.167C224.207 141.329 219.272 142.41 213.632 142.41ZM211.376 130.989C216.452 130.989 220.635 129.673 223.925 127.041C227.309 124.315 229.8 120.884 231.398 116.748C233.09 112.518 233.936 108.147 233.936 103.635C233.936 99.029 233.09 94.658 231.398 90.522C229.8 86.386 227.309 83.002 223.925 80.37C220.635 77.644 216.452 76.281 211.376 76.281C206.394 76.281 202.211 77.644 198.827 80.37C195.537 83.002 193.046 86.386 191.354 90.522C189.756 94.658 188.957 99.029 188.957 103.635C188.957 108.147 189.756 112.518 191.354 116.748C193.046 120.884 195.537 124.315 198.827 127.041C202.211 129.673 206.394 130.989 211.376 130.989ZM297.592 64.86C302.292 64.86 306.24 65.612 309.436 67.116C312.632 68.62 315.217 70.406 317.191 72.474C319.165 74.448 320.669 76.328 321.703 78.114H322.549V66.27H335.944V141H322.549V129.156H321.703C320.669 130.942 319.165 132.869 317.191 134.937C315.217 137.005 312.632 138.791 309.436 140.295C306.24 141.705 302.292 142.41 297.592 142.41C291.952 142.41 287.017 141.329 282.787 139.167C278.557 136.911 275.032 133.95 272.212 130.284C269.392 126.524 267.277 122.341 265.867 117.735C264.457 113.129 263.752 108.429 263.752 103.635C263.752 98.841 264.457 94.141 265.867 89.535C267.277 84.929 269.392 80.793 272.212 77.127C275.032 73.367 278.557 70.406 282.787 68.244C287.017 65.988 291.952 64.86 297.592 64.86ZM299.848 76.281C294.866 76.281 290.683 77.644 287.299 80.37C283.915 83.002 281.377 86.386 279.685 90.522C278.087 94.658 277.288 99.029 277.288 103.635C277.288 108.147 278.087 112.518 279.685 116.748C281.377 120.884 283.915 124.315 287.299 127.041C290.683 129.673 294.866 130.989 299.848 130.989C304.83 130.989 308.966 129.673 312.256 127.041C315.64 124.315 318.131 120.884 319.729 116.748C321.421 112.518 322.267 108.147 322.267 103.635C322.267 99.029 321.421 94.658 319.729 90.522C318.131 86.386 315.64 83.002 312.256 80.37C308.966 77.644 304.83 76.281 299.848 76.281ZM395.39 142.41C390.69 142.41 386.742 141.658 383.546 140.154C380.35 138.65 377.765 136.864 375.791 134.796C373.911 132.728 372.407 130.848 371.279 129.156H370.433V141H357.038V33.84H370.433V78.114H371.279C372.407 76.328 373.911 74.401 375.791 72.333C377.765 70.265 380.35 68.526 383.546 67.116C386.742 65.612 390.69 64.86 395.39 64.86C401.03 64.86 405.965 65.988 410.195 68.244C414.425 70.406 417.95 73.367 420.77 77.127C423.59 80.793 425.705 84.929 427.115 89.535C428.525 94.141 429.23 98.841 429.23 103.635C429.23 108.429 428.525 113.129 427.115 117.735C425.705 122.341 423.59 126.524 420.77 130.284C417.95 133.95 414.425 136.911 410.195 139.167C405.965 141.329 401.03 142.41 395.39 142.41ZM393.134 130.989C398.21 130.989 402.393 129.673 405.683 127.041C409.067 124.315 411.558 120.884 413.156 116.748C414.848 112.518 415.694 108.147 415.694 103.635C415.694 99.029 414.848 94.658 413.156 90.522C411.558 86.386 409.067 83.002 405.683 80.37C402.393 77.644 398.21 76.281 393.134 76.281C388.152 76.281 383.969 77.644 380.585 80.37C377.295 83.002 374.804 86.386 373.112 90.522C371.514 94.658 370.715 99.029 370.715 103.635C370.715 108.147 371.514 112.518 373.112 116.748C374.804 120.884 377.295 124.315 380.585 127.041C383.969 129.673 388.152 130.989 393.134 130.989ZM445.471 168.495C443.309 168.495 441.476 168.401 439.972 168.213C438.468 168.025 437.716 167.931 437.716 167.931V156.51C437.716 156.51 438.468 156.557 439.972 156.651C441.57 156.839 443.262 156.933 445.048 156.933C450.594 156.933 455.106 155.758 458.584 153.408C462.156 151.152 465.164 147.392 467.608 142.128L438.703 66.27H452.662L474.235 124.644L495.949 66.27H510.049L481.144 141.141C477.478 150.541 472.731 157.45 466.903 161.868C461.169 166.286 454.025 168.495 445.471 168.495ZM564.617 142.41C559.917 142.41 555.969 141.658 552.773 140.154C549.577 138.65 546.992 136.864 545.018 134.796C543.138 132.728 541.634 130.848 540.506 129.156H539.66V141H526.265V33.84H539.66V78.114H540.506C541.634 76.328 543.138 74.401 545.018 72.333C546.992 70.265 549.577 68.526 552.773 67.116C555.969 65.612 559.917 64.86 564.617 64.86C570.257 64.86 575.192 65.988 579.422 68.244C583.652 70.406 587.177 73.367 589.997 77.127C592.817 80.793 594.932 84.929 596.342 89.535C597.752 94.141 598.457 98.841 598.457 103.635C598.457 108.429 597.752 113.129 596.342 117.735C594.932 122.341 592.817 126.524 589.997 130.284C587.177 133.95 583.652 136.911 579.422 139.167C575.192 141.329 570.257 142.41 564.617 142.41ZM562.361 130.989C567.437 130.989 571.62 129.673 574.91 127.041C578.294 124.315 580.785 120.884 582.383 116.748C584.075 112.518 584.921 108.147 584.921 103.635C584.921 99.029 584.075 94.658 582.383 90.522C580.785 86.386 578.294 83.002 574.91 80.37C571.62 77.644 567.437 76.281 562.361 76.281C557.379 76.281 553.196 77.644 549.812 80.37C546.522 83.002 544.031 86.386 542.339 90.522C540.741 94.658 539.942 99.029 539.942 103.635C539.942 108.147 540.741 112.518 542.339 116.748C544.031 120.884 546.522 124.315 549.812 127.041C553.196 129.673 557.379 130.989 562.361 130.989ZM648.577 64.86C653.277 64.86 657.225 65.612 660.421 67.116C663.617 68.62 666.202 70.406 668.176 72.474C670.15 74.448 671.654 76.328 672.688 78.114H673.534V66.27H686.929V141H673.534V129.156H672.688C671.654 130.942 670.15 132.869 668.176 134.937C666.202 137.005 663.617 138.791 660.421 140.295C657.225 141.705 653.277 142.41 648.577 142.41C642.937 142.41 638.002 141.329 633.772 139.167C629.542 136.911 626.017 133.95 623.197 130.284C620.377 126.524 618.262 122.341 616.852 117.735C615.442 113.129 614.737 108.429 614.737 103.635C614.737 98.841 615.442 94.141 616.852 89.535C618.262 84.929 620.377 80.793 623.197 77.127C626.017 73.367 629.542 70.406 633.772 68.244C638.002 65.988 642.937 64.86 648.577 64.86ZM650.833 76.281C645.851 76.281 641.668 77.644 638.284 80.37C634.9 83.002 632.362 86.386 630.67 90.522C629.072 94.658 628.273 99.029 628.273 103.635C628.273 108.147 629.072 112.518 630.67 116.748C632.362 120.884 634.9 124.315 638.284 127.041C641.668 129.673 645.851 130.989 650.833 130.989C655.815 130.989 659.951 129.673 663.241 127.041C666.625 124.315 669.116 120.884 670.714 116.748C672.406 112.518 673.252 108.147 673.252 103.635C673.252 99.029 672.406 94.658 670.714 90.522C669.116 86.386 666.625 83.002 663.241 80.37C659.951 77.644 655.815 76.281 650.833 76.281ZM733.967 142.41C728.233 142.41 723.486 141.611 719.726 140.013C716.06 138.415 713.146 136.441 710.984 134.091C708.822 131.647 707.224 129.25 706.19 126.9C705.156 124.456 704.498 122.435 704.216 120.837C703.934 119.239 703.793 118.44 703.793 118.44H717.329C717.329 118.44 717.47 119.098 717.752 120.414C718.128 121.636 718.833 123.093 719.867 124.785C720.995 126.383 722.687 127.84 724.943 129.156C727.293 130.378 730.395 130.989 734.249 130.989C738.667 130.989 742.098 129.955 744.542 127.887C746.986 125.725 748.208 123.093 748.208 119.991C748.208 117.265 747.221 115.103 745.247 113.505C743.367 111.907 740.641 110.685 737.069 109.839L726.917 107.442C723.157 106.502 719.632 105.233 716.342 103.635C713.052 102.037 710.373 99.875 708.305 97.149C706.331 94.329 705.344 90.851 705.344 86.715C705.344 80.323 707.741 75.106 712.535 71.064C717.329 66.928 723.58 64.86 731.288 64.86C736.458 64.86 740.735 65.612 744.119 67.116C747.503 68.526 750.182 70.312 752.156 72.474C754.224 74.636 755.728 76.798 756.668 78.96C757.702 81.122 758.36 82.955 758.642 84.459C758.924 85.869 759.065 86.574 759.065 86.574H746.093C746.093 86.574 745.952 86.057 745.67 85.023C745.388 83.895 744.73 82.673 743.696 81.357C742.756 79.947 741.299 78.725 739.325 77.691C737.351 76.563 734.719 75.999 731.429 75.999C726.917 75.999 723.627 77.033 721.559 79.101C719.491 81.169 718.457 83.425 718.457 85.869C718.457 88.219 719.397 90.146 721.277 91.65C723.251 93.06 725.789 94.141 728.891 94.893L739.184 97.29C745.576 98.794 750.84 101.285 754.976 104.763C759.206 108.147 761.321 113.035 761.321 119.427C761.321 123.563 760.24 127.417 758.078 130.989C755.916 134.467 752.814 137.24 748.772 139.308C744.73 141.376 739.795 142.41 733.967 142.41ZM810.819 142.41C804.709 142.41 799.398 141.329 794.886 139.167C790.468 136.911 786.802 133.903 783.888 130.143C781.068 126.383 778.953 122.247 777.543 117.735C776.133 113.129 775.428 108.429 775.428 103.635C775.428 98.935 776.086 94.282 777.402 89.676C778.812 85.07 780.927 80.887 783.747 77.127C786.661 73.367 790.28 70.406 794.604 68.244C799.022 65.988 804.239 64.86 810.255 64.86C816.647 64.86 822.287 66.317 827.175 69.231C832.063 72.145 835.917 76.469 838.737 82.203C841.557 87.937 842.967 95.128 842.967 103.776V107.724H788.964C789.246 111.954 790.233 115.855 791.925 119.427C793.711 122.905 796.202 125.725 799.398 127.887C802.594 129.955 806.401 130.989 810.819 130.989C814.673 130.989 817.775 130.378 820.125 129.156C822.569 127.84 824.496 126.336 825.906 124.644C827.316 122.952 828.256 121.495 828.726 120.273C829.29 118.957 829.572 118.299 829.572 118.299H842.121C842.121 118.299 841.886 119.145 841.416 120.837C840.946 122.435 840.1 124.409 838.878 126.759C837.656 129.109 835.87 131.506 833.52 133.95C831.17 136.3 828.162 138.321 824.496 140.013C820.83 141.611 816.271 142.41 810.819 142.41ZM789.105 97.29H829.854C829.666 92.402 828.632 88.454 826.752 85.446C824.872 82.344 822.475 80.041 819.561 78.537C816.647 77.033 813.545 76.281 810.255 76.281C804.333 76.281 799.492 78.208 795.732 82.062C791.972 85.822 789.763 90.898 789.105 97.29Z" fill="white"/>
</svg>
